<?xml version="1.0" encoding="UTF-8"?>
<svg version="1.1" xmlns="http://www.w3.org/2000/svg" width="200" height="200">
<path d="M0 0 C66 0 132 0 200 0 C200 66 200 132 200 200 C134 200 68 200 0 200 C0 134 0 68 0 0 Z " fill="#EAF3FD" transform="translate(0,0)"/>
<path d="M0 0 C66 0 132 0 200 0 C200 66 200 132 200 200 C134 200 68 200 0 200 C0 134 0 68 0 0 Z M35.86981201 39.37002563 C25.62688074 60.52052318 29.13206195 88.46228228 30.23736989 111.22221357 C30.62870337 119.45520405 30.78440412 127.68846651 30.93267167 135.92879593 C31.17257385 148.7196009 31.52308319 161.50666923 32.08813477 174.28735352 C32.13390656 175.5384642 32.17967834 176.78957489 32.22683716 178.07859802 C32.28298691 179.21709198 32.33913666 180.35558594 32.39698792 181.52857971 C32.44098001 182.51883935 32.4849721 183.50909899 32.53029728 184.52936649 C32.83545047 187.00913686 32.83545047 187.00913686 34.21269131 188.81815434 C36.64012666 190.42327938 38.29693099 190.37744757 41.19995117 190.38095093 C42.2767514 190.3894104 43.35355164 190.39786987 44.46298218 190.40658569 C45.64437775 190.400513 46.82577332 190.39444031 48.04296875 190.38818359 C49.28704498 190.39344055 50.53112122 190.39869751 51.81289673 190.40411377 C55.22622637 190.41506715 58.63901162 190.4124832 62.05231094 190.40297651 C65.6223652 190.39538724 69.19239601 190.40242348 72.76245117 190.40713501 C78.75801781 190.41259472 84.75347362 190.40539538 90.74902344 190.39111328 C97.68314717 190.37478627 104.6170063 190.38007463 111.55112362 190.3965925 C117.50194789 190.4102013 123.45269245 190.41213002 129.40352726 190.40427649 C132.95887147 190.3995966 136.51409125 190.39898367 140.06942749 190.40888596 C144.03206692 190.41915149 147.99440935 190.40492802 151.95703125 190.38818359 C153.13842682 190.39425629 154.31982239 190.40032898 155.53701782 190.40658569 C157.15221817 190.39389648 157.15221817 190.39389648 158.80004883 190.38095093 C159.73730301 190.37981985 160.67455719 190.37868877 161.64021301 190.37752342 C164.00562556 190.15078606 164.00562556 190.15078606 165.80076694 188.91033363 C167.63781689 185.98398142 167.3811461 183.48612851 167.38768005 180.05371094 C167.39306559 179.34272625 167.39845113 178.63174156 167.40399987 177.89921188 C167.4183366 175.51075816 167.41116196 173.12285419 167.40405273 170.734375 C167.40975329 169.02453158 167.41671633 167.31469197 167.42485046 165.6048584 C167.44283071 160.95616791 167.44160452 156.30766566 167.43590808 151.65895081 C167.43282359 147.78195706 167.43890034 143.90499987 167.44494683 140.02801132 C167.4590061 130.88452887 167.4574188 121.74113982 167.44604492 112.59765625 C167.43455877 103.15506335 167.44864453 93.71275431 167.4754414 84.27019882 C167.49756863 76.17077504 167.50424262 68.07144055 167.49836498 59.97198868 C167.49498748 55.13111832 167.49746305 50.29043 167.51461601 45.44958496 C167.53003604 40.89900835 167.52618497 36.3488537 167.50731087 31.79829407 C167.50361138 30.12571801 167.50677282 28.45311102 167.51719666 26.78056335 C167.53031621 24.50197932 167.51894175 22.224811 167.50120544 19.94628906 C167.50099616 18.66981506 167.50078688 17.39334106 167.50057125 16.07818604 C167.28730009 12.94827559 167.28730009 12.94827559 165.20663548 11.10354519 C161.77684536 9.3882966 158.25249263 9.30136267 154.48828125 9.08813477 C153.62868805 9.02987015 152.76909485 8.97160553 151.88345337 8.91157532 C143.85335279 8.40003571 135.81120402 8.11327486 127.76847839 7.88836765 C122.38606204 7.73581089 117.02756141 7.51722196 111.65722656 7.11938477 C80.48133577 4.87693677 52.60213352 10.06825123 35.86981201 39.37002563 Z " fill="#FEFEFE" transform="translate(0,0)"/>
<path d="M0 0 C6.0546875 -0.1953125 6.0546875 -0.1953125 8 0 C10.86186117 2.86186117 10.25425051 4.81508229 10.26069641 8.82603455 C10.26452196 9.53616481 10.26834751 10.24629507 10.27228898 10.97794443 C10.28264909 13.36940371 10.27862121 15.76062424 10.2746582 18.15209961 C10.27900303 19.86179325 10.2841854 21.57148494 10.29014587 23.28117371 C10.30357201 27.9340227 10.30411053 32.58679065 10.30158257 37.23965526 C10.30051529 41.11907693 10.30539001 44.99848204 10.310188 48.87790018 C10.32129572 58.02758074 10.32171351 67.17722025 10.31567383 76.3269043 C10.30963203 85.77681179 10.32194738 95.22657048 10.3432439 104.67645258 C10.36083729 112.78009173 10.36686483 120.88368343 10.36360615 128.98734099 C10.3617895 133.83155171 10.36446732 138.67565628 10.37832069 143.51984978 C10.39085769 148.07444949 10.3889943 152.62881659 10.37590981 157.18341255 C10.37353542 158.85760195 10.37630939 160.53180751 10.38453293 162.20597839 C10.39492977 164.48658619 10.3869576 166.7664032 10.3742218 169.04698181 C10.37438954 170.32475463 10.37455729 171.60252745 10.37473011 172.91902065 C10 176 10 176 8.70707989 177.92284489 C5.93070408 179.67471802 3.18392357 179.18022209 0 179 C0.32476192 178.48418145 0.64952385 177.9683629 0.98412704 177.43691349 C2.33720959 174.19108921 2.25186389 171.5263414 2.25396729 168.00938416 C2.25708727 167.30571215 2.26020725 166.60204014 2.26342177 165.87704474 C2.27139842 163.51942571 2.26507954 161.1620643 2.25878906 158.80444336 C2.26149905 157.11415964 2.26506003 155.4238771 2.26940918 153.7335968 C2.27853383 149.14284015 2.27498879 144.5521733 2.26865101 139.96141505 C2.26359226 135.16084343 2.26828204 130.36027956 2.27142334 125.55970764 C2.27506299 117.49869402 2.27026353 109.43771704 2.26074219 101.37670898 C2.24985395 92.0506201 2.2533859 82.72461863 2.264395 73.39853185 C2.27346349 65.39676442 2.27475541 57.39502334 2.26951766 49.39325243 C2.26639602 44.61169632 2.26599401 39.83018134 2.27259064 35.04862785 C2.27835723 30.55477608 2.27437983 26.06103733 2.26280212 21.5671978 C2.26015201 19.9155852 2.26092659 18.26396314 2.26532745 16.61235428 C2.27077047 14.36265074 2.26396421 12.1133123 2.25396729 9.8636322 C2.25321323 8.60320571 2.25245918 7.34277922 2.25168228 6.04415798 C2.23287889 2.82470723 2.23287889 2.82470723 0 0 Z " fill="#DDEAFB" transform="translate(157,11)"/>
<path d="M0 0 C0.04937279 4.66307014 0.08570627 9.32598873 0.10986328 13.98925781 C0.11993188 15.57619883 0.13358767 17.16312125 0.15087891 18.75 C0.17509001 21.02869247 0.18647422 23.30714006 0.1953125 25.5859375 C0.20563507 26.29744965 0.21595764 27.00896179 0.22659302 27.74203491 C0.22699422 29.49631665 0.12202209 31.24996709 0 33 C-2 35 -2 35 -5.25634766 35.22705078 C-6.64229295 35.22673382 -8.02826301 35.21541759 -9.4140625 35.1953125 C-10.14370209 35.1924826 -10.87334167 35.18965271 -11.62509155 35.18673706 C-13.95856028 35.17553002 -16.29164703 35.1504251 -18.625 35.125 C-20.20572363 35.11497085 -21.78645327 35.10584489 -23.3671875 35.09765625 C-27.24493914 35.07558905 -31.12240478 35.04105615 -35 35 C-33.67365058 32.06254084 -32.2306634 29.97856521 -29.95898438 27.70019531 C-29.34494751 27.07985413 -28.73091064 26.45951294 -28.0982666 25.82037354 C-27.43677612 25.16293152 -26.77528564 24.5054895 -26.09375 23.828125 C-25.41324585 23.1457074 -24.7327417 22.46328979 -24.03161621 21.76019287 C-22.59498803 20.32220573 -21.15583915 18.88673308 -19.71435547 17.45361328 C-17.50123571 15.25122972 -15.29901528 13.03835067 -13.09765625 10.82421875 C-11.70116197 9.42904546 -10.30404773 8.03449238 -8.90625 6.640625 C-8.24475952 5.97508606 -7.58326904 5.30954712 -6.9017334 4.62384033 C-6.28769653 4.01610779 -5.67365967 3.40837524 -5.04101562 2.78222656 C-4.23065857 1.97425629 -4.23065857 1.97425629 -3.40393066 1.14996338 C-2 0 -2 0 0 0 Z " fill="#4C82AB" transform="translate(69,12)"/>
<path d="M0 0 C0.87430664 -0.00637985 1.74861328 -0.0127597 2.64941406 -0.01933289 C3.59526367 -0.02044571 4.54111328 -0.02155853 5.515625 -0.02270508 C6.48467773 -0.02603348 7.45373047 -0.02936188 8.45214844 -0.03279114 C10.50325037 -0.03785903 12.55436056 -0.04019951 14.60546875 -0.04003906 C17.75274129 -0.04222737 20.89966445 -0.06038957 24.046875 -0.0793457 C26.03645713 -0.08227922 28.02604093 -0.08426429 30.015625 -0.08520508 C31.43439941 -0.09598335 31.43439941 -0.09598335 32.88183594 -0.10697937 C34.1932959 -0.10236443 34.1932959 -0.10236443 35.53125 -0.09765625 C36.68802246 -0.09979378 36.68802246 -0.09979378 37.86816406 -0.10197449 C39.765625 0.14526367 39.765625 0.14526367 41.765625 2.14526367 C42.03125 4.02026367 42.03125 4.02026367 42.015625 6.14526367 C42.02335937 7.19713867 42.02335937 7.19713867 42.03125 8.27026367 C41.765625 10.14526367 41.765625 10.14526367 39.765625 12.14526367 C37.86816406 12.39923096 37.86816406 12.39923096 35.53125 12.40405273 C34.65694336 12.41035706 33.78263672 12.41666138 32.88183594 12.42315674 C31.46306152 12.41708405 31.46306152 12.41708405 30.015625 12.41088867 C29.04657227 12.41280212 28.07751953 12.41471558 27.07910156 12.41668701 C25.02799215 12.41804946 22.97687414 12.41434885 20.92578125 12.40600586 C17.77844961 12.39530727 14.6316888 12.40589921 11.484375 12.41870117 C9.4947904 12.41737959 7.50520616 12.41481722 5.515625 12.41088867 C4.56977539 12.41493713 3.62392578 12.4189856 2.64941406 12.42315674 C1.77510742 12.41685242 0.90080078 12.4105481 0 12.40405273 C-0.77118164 12.40246155 -1.54236328 12.40087036 -2.33691406 12.39923096 C-4.234375 12.14526367 -4.234375 12.14526367 -6.234375 10.14526367 C-6.4296875 7.98120117 -6.4296875 7.98120117 -6.359375 5.52026367 C-6.34132813 4.70299805 -6.32328125 3.88573242 -6.3046875 3.04370117 C-6.28148438 2.4172168 -6.25828125 1.79073242 -6.234375 1.14526367 C-3.92016771 -0.01183998 -2.57552404 0.01273031 0 0 Z " fill="#FEE080" transform="translate(112.234375,21.854736328125)"/>
<path d="M0 0 C2.64 0 5.28 0 8 0 C8.12385084 5.17772746 8.21445571 10.35458788 8.2746582 15.53344727 C8.29976061 17.29401676 8.33385028 19.05448247 8.37719727 20.81469727 C8.43804115 23.34938179 8.46625113 25.88268575 8.48828125 28.41796875 C8.51408768 29.20149216 8.5398941 29.98501556 8.56648254 30.7922821 C8.56865409 35.049578 8.37668017 36.53432039 5.59448242 39.97387695 C1.32687849 43.30659974 -1.82729465 43.13247744 -7.0703125 43.09765625 C-8.26465408 43.09553383 -8.26465408 43.09553383 -9.48312378 43.09336853 C-12.0304538 43.08776345 -14.57769647 43.07521014 -17.125 43.0625 C-18.85025915 43.05748565 -20.57551967 43.05292263 -22.30078125 43.04882812 C-26.53388791 43.03779237 -30.76692914 43.02052436 -35 43 C-35 40.36 -35 37.72 -35 35 C-33.97527588 35.00523682 -32.95055176 35.01047363 -31.89477539 35.01586914 C-28.10604724 35.03391969 -24.31732291 35.0454322 -20.52856445 35.05493164 C-18.88630536 35.05997174 -17.24405077 35.06680378 -15.60180664 35.07543945 C-13.24624521 35.08751926 -10.89074291 35.09323139 -8.53515625 35.09765625 C-7.42733543 35.10539818 -7.42733543 35.10539818 -6.2971344 35.11329651 C-4.53101912 35.1134925 -2.76502854 35.06194719 -1 35 C0.37317088 33.85411899 0.37317088 33.85411899 0.11352539 30.76538086 C0.11336631 29.33185874 0.10767407 27.89833088 0.09765625 26.46484375 C0.0962413 25.71159317 0.09482635 24.95834259 0.09336853 24.18226624 C0.08775376 21.7673044 0.07519883 19.35243399 0.0625 16.9375 C0.0574869 15.30403779 0.05292366 13.67057414 0.04882812 12.03710938 C0.03777954 8.02470415 0.02050506 4.01236759 0 0 Z " fill="#DAE7F9" transform="translate(68,11)"/>
<path d="M0 0 C1.07461739 0.00539291 1.07461739 0.00539291 2.17094421 0.01089478 C2.92211517 0.01074875 3.67328613 0.01060272 4.44721985 0.01045227 C6.94166404 0.01115153 9.43603448 0.01894452 11.9304657 0.02676392 C13.65539509 0.02862805 15.38032501 0.03005197 17.10525513 0.03105164 C21.65418448 0.03487719 26.20308211 0.04470779 30.7519989 0.05575562 C35.39025951 0.06596893 40.02852522 0.07054908 44.66679382 0.07559204 C53.77422967 0.08633003 62.88164192 0.1034069 71.98905945 0.12442017 C72.37124712 1.78056674 72.70301047 3.44899041 72.98905945 5.12442017 C71.30402245 6.80945716 69.2264606 6.24408 66.9781189 6.24884033 C66.26170731 6.24524506 65.54529572 6.24164978 64.80717468 6.23794556 C63.68041824 6.2381646 63.68041824 6.2381646 62.53089905 6.23838806 C60.03645486 6.2376888 57.54208442 6.22989581 55.0476532 6.22207642 C53.3227238 6.22021228 51.59779388 6.21878836 49.87286377 6.2177887 C45.32393441 6.21396314 40.77503678 6.20413254 36.22612 6.19308472 C31.58785939 6.1828714 26.94959367 6.17829125 22.31132507 6.17324829 C13.20388923 6.1625103 4.09647697 6.14543343 -5.01094055 6.12442017 C-5.39312822 4.46827359 -5.72489157 2.79984992 -6.01094055 1.12442017 C-4.32590356 -0.56061683 -2.24834171 0.00476033 0 0 Z " fill="#85D49C" transform="translate(81.01094055175781,146.87557983398438)"/>
<path d="M0 0 C1.07461739 0.00539291 1.07461739 0.00539291 2.17094421 0.01089478 C2.92211517 0.01074875 3.67328613 0.01060272 4.44721985 0.01045227 C6.94166404 0.01115153 9.43603448 0.01894452 11.9304657 0.02676392 C13.65539509 0.02862805 15.38032501 0.03005197 17.10525513 0.03105164 C21.65418448 0.03487719 26.20308211 0.04470779 30.7519989 0.05575562 C35.39025951 0.06596893 40.02852522 0.07054908 44.66679382 0.07559204 C53.77422967 0.08633003 62.88164192 0.1034069 71.98905945 0.12442017 C72.37124712 1.78056674 72.70301047 3.44899041 72.98905945 5.12442017 C71.30402245 6.80945716 69.2264606 6.24408 66.9781189 6.24884033 C66.26170731 6.24524506 65.54529572 6.24164978 64.80717468 6.23794556 C63.68041824 6.2381646 63.68041824 6.2381646 62.53089905 6.23838806 C60.03645486 6.2376888 57.54208442 6.22989581 55.0476532 6.22207642 C53.3227238 6.22021228 51.59779388 6.21878836 49.87286377 6.2177887 C45.32393441 6.21396314 40.77503678 6.20413254 36.22612 6.19308472 C31.58785939 6.1828714 26.94959367 6.17829125 22.31132507 6.17324829 C13.20388923 6.1625103 4.09647697 6.14543343 -5.01094055 6.12442017 C-5.39312822 4.46827359 -5.72489157 2.79984992 -6.01094055 1.12442017 C-4.32590356 -0.56061683 -2.24834171 0.00476033 0 0 Z " fill="#86D49D" transform="translate(81.01094055175781,67.87557983398438)"/>
<path d="M0 0 C25.74 0 51.48 0 78 0 C78.495 2.475 78.495 2.475 79 5 C52.93 5 26.86 5 0 5 C0 3.35 0 1.7 0 0 Z " fill="#7AD092" transform="translate(75,121)"/>
<path d="M0 0 C26.07 0 52.14 0 79 0 C78.67 1.65 78.34 3.3 78 5 C52.26 5 26.52 5 0 5 C0 3.35 0 1.7 0 0 Z " fill="#7BD193" transform="translate(75,95)"/>
<path d="M0 0 C2.97922593 -0.02683987 5.95821295 -0.04676037 8.9375 -0.0625 C9.78763672 -0.07087891 10.63777344 -0.07925781 11.51367188 -0.08789062 C12.32255859 -0.09111328 13.13144531 -0.09433594 13.96484375 -0.09765625 C14.7137085 -0.10289307 15.46257324 -0.10812988 16.23413086 -0.11352539 C18 0 18 0 19 1 C19.12663091 3.82416382 19.18520548 6.61294793 19.1875 9.4375 C19.19974609 10.22705078 19.21199219 11.01660156 19.22460938 11.83007812 C19.22987279 13.88807435 19.12206285 15.94562009 19 18 C16.44051001 20.55948999 14.72792805 20.26068731 11.234375 20.2734375 C10.49703125 20.26570313 9.7596875 20.25796875 9 20.25 C8.26265625 20.25773437 7.5253125 20.26546875 6.765625 20.2734375 C1.2533196 20.2533196 1.2533196 20.2533196 -1 18 C-1.1720611 15.29368306 -1.23239017 12.7028606 -1.1875 10 C-1.18685547 9.26265625 -1.18621094 8.5253125 -1.18554688 7.765625 C-1.14050904 2.28101809 -1.14050904 2.28101809 0 0 Z " fill="#DF78A7" transform="translate(46,95)"/>
<path d="M0 0 C0.73734375 0.00773438 1.4746875 0.01546875 2.234375 0.0234375 C3.34039062 0.01183594 3.34039062 0.01183594 4.46875 0 C9.9810554 0.0201179 9.9810554 0.0201179 12.234375 2.2734375 C12.40616552 5.16475927 12.4666697 7.94785815 12.421875 10.8359375 C12.42123047 11.62935547 12.42058594 12.42277344 12.41992188 13.24023438 C12.37463022 19.13318228 12.37463022 19.13318228 11.234375 20.2734375 C8.41021118 20.40006841 5.62142707 20.45864298 2.796875 20.4609375 C2.00732422 20.47318359 1.21777344 20.48542969 0.40429688 20.49804688 C-1.65369935 20.50331029 -3.71124509 20.39550035 -5.765625 20.2734375 C-8.32511499 17.71394751 -8.02631231 16.00136555 -8.0390625 12.5078125 C-8.03132813 11.77046875 -8.02359375 11.033125 -8.015625 10.2734375 C-8.02335937 9.53609375 -8.03109375 8.79875 -8.0390625 8.0390625 C-8.01420108 1.22703341 -6.81202909 0.02486142 0 0 Z " fill="#DF78A7" transform="translate(52.765625,146.7265625)"/>
<path d="M0 0 C1.56125851 0.00399299 3.12251789 0.01875614 4.68359375 0.04296875 C5.47701172 0.04361328 6.27042969 0.04425781 7.08789062 0.04492188 C12.98083853 0.09021353 12.98083853 0.09021353 14.12109375 1.23046875 C14.24772466 4.05463257 14.30629923 6.84341668 14.30859375 9.66796875 C14.32083984 10.45751953 14.33308594 11.24707031 14.34570312 12.06054688 C14.35096654 14.1185431 14.2431566 16.17608884 14.12109375 18.23046875 C11.56160376 20.78995874 9.8490218 20.49115606 6.35546875 20.50390625 C5.618125 20.49617188 4.88078125 20.4884375 4.12109375 20.48046875 C3.38375 20.48820312 2.64640625 20.4959375 1.88671875 20.50390625 C-3.62558665 20.48378835 -3.62558665 20.48378835 -5.87890625 18.23046875 C-6.07742727 15.52124074 -6.15730102 12.93743696 -6.12890625 10.23046875 C-6.13664062 9.493125 -6.144375 8.75578125 -6.15234375 7.99609375 C-6.13172849 2.34751362 -6.12035384 0.3636464 0 0 Z " fill="#DF77A7" transform="translate(50.87890625,120.76953125)"/>
<path d="M0 0 C0.73734375 0.00773437 1.4746875 0.01546875 2.234375 0.0234375 C3.34039062 0.01183594 3.34039062 0.01183594 4.46875 0 C9.9810554 0.0201179 9.9810554 0.0201179 12.234375 2.2734375 C12.40616552 5.16475927 12.4666697 7.94785815 12.421875 10.8359375 C12.42123047 11.62935547 12.42058594 12.42277344 12.41992188 13.24023438 C12.37463022 19.13318228 12.37463022 19.13318228 11.234375 20.2734375 C8.41021118 20.40006841 5.62142707 20.45864298 2.796875 20.4609375 C2.00732422 20.47318359 1.21777344 20.48542969 0.40429688 20.49804688 C-1.65369935 20.50331029 -3.71124509 20.39550035 -5.765625 20.2734375 C-8.32511499 17.71394751 -8.02631231 16.00136555 -8.0390625 12.5078125 C-8.03132813 11.77046875 -8.02359375 11.033125 -8.015625 10.2734375 C-8.02335937 9.53609375 -8.03109375 8.79875 -8.0390625 8.0390625 C-8.01420108 1.22703341 -6.81202909 0.02486142 0 0 Z " fill="#DF78A7" transform="translate(52.765625,67.7265625)"/>
<path d="M0 0 C0.85049423 0.00222061 1.70098846 0.00444122 2.57725525 0.00672913 C4.01863609 0.00684242 4.01863609 0.00684242 5.48913574 0.00695801 C7.05630592 0.01469994 7.05630592 0.01469994 8.65513611 0.02259827 C9.71913132 0.02401321 10.78312653 0.02542816 11.87936401 0.02688599 C15.29293069 0.03250388 18.70643286 0.04505941 22.11997986 0.05775452 C24.42792162 0.06276721 26.73586441 0.06733052 29.04380798 0.07142639 C34.71505412 0.08247912 40.38626238 0.09923465 46.05747986 0.12025452 C46.43966753 1.77640109 46.77143088 3.44482476 47.05747986 5.12025452 C46.05747986 6.12025452 46.05747986 6.12025452 44.11495972 6.24050903 C43.26446548 6.23828842 42.41397125 6.23606781 41.53770447 6.23377991 C40.09632362 6.23366661 40.09632362 6.23366661 38.62582397 6.23355103 C37.58104385 6.22838974 36.53626373 6.22322845 35.45982361 6.21791077 C34.3958284 6.21649582 33.33183319 6.21508087 32.2355957 6.21362305 C28.82202903 6.20800515 25.40852686 6.19544963 21.99497986 6.18275452 C19.68703809 6.17774182 17.37909531 6.17317852 15.07115173 6.16908264 C9.39990559 6.15802991 3.72869733 6.14127438 -1.94252014 6.12025452 C-2.32470781 4.46410794 -2.65647116 2.79568427 -2.94252014 1.12025452 C-1.94252014 0.12025452 -1.94252014 0.12025452 0 0 Z " fill="#86D49D" transform="translate(77.94252014160156,108.87974548339844)"/>
<path d="M0 0 C1.21911575 0.00666183 1.21911575 0.00666183 2.46286011 0.01345825 C3.38366364 0.01360931 4.30446716 0.01376038 5.25317383 0.01391602 C6.2490451 0.02423859 7.24491638 0.03456116 8.27096558 0.04519653 C9.28915375 0.04802643 10.30734192 0.05085632 11.35638428 0.05377197 C14.61709208 0.06499133 17.87752791 0.09009907 21.13815308 0.11550903 C23.34518037 0.12553656 25.55221195 0.13466281 27.75924683 0.14285278 C33.1773088 0.16493636 38.59521151 0.19843108 44.01315308 0.24050903 C44.39534075 1.89665561 44.72710409 3.56507928 45.01315308 5.24050903 C44.01315308 6.24050903 44.01315308 6.24050903 42.1085968 6.36076355 C41.27586746 6.35854294 40.44313812 6.35632233 39.58517456 6.35403442 C38.64427475 6.35395889 37.70337494 6.35388336 36.73396301 6.35380554 C35.71105667 6.34864426 34.68815033 6.34348297 33.63424683 6.33816528 C32.59244766 6.33675034 31.5506485 6.33533539 30.47727966 6.33387756 C27.13504214 6.32825983 23.79287051 6.31570433 20.45065308 6.30300903 C18.19088842 6.29799632 15.93112271 6.29343302 13.6713562 6.28933716 C8.11859917 6.27828464 2.56588083 6.26152927 -2.98684692 6.24050903 C-3.61184692 4.36550903 -3.61184692 4.36550903 -3.98684692 2.24050903 C-1.98684692 0.24050903 -1.98684692 0.24050903 0 0 Z " fill="#E082AE" transform="translate(108.98684692382813,53.759490966796875)"/>
<path d="M0 0 C16.17 0 32.34 0 49 0 C49.495 1.98 49.495 1.98 50 4 C49 5 49 5 47.01951599 5.12025452 C46.15125687 5.11803391 45.28299774 5.11581329 44.38842773 5.11352539 C43.40748642 5.11344986 42.4265451 5.11337433 41.4158783 5.11329651 C40.3492244 5.10813522 39.2825705 5.10297394 38.18359375 5.09765625 C36.55430687 5.09553383 36.55430687 5.09553383 34.8921051 5.09336853 C31.40720925 5.08775048 27.92237658 5.07519492 24.4375 5.0625 C22.08138113 5.05748733 19.72526126 5.05292402 17.36914062 5.04882812 C11.57940536 5.03777519 5.78970719 5.02101951 0 5 C0 3.35 0 1.7 0 0 Z " fill="#7AD092" transform="translate(75,162)"/>
<path d="M0 0 C16.5 0 33 0 50 0 C49.67 1.65 49.34 3.3 49 5 C33.16 5 17.32 5 1 5 C0.67 3.35 0.34 1.7 0 0 Z " fill="#7BD193" transform="translate(75,136)"/>
<path d="M0 0 C16.17 0 32.34 0 49 0 C49.495 1.98 49.495 1.98 50 4 C49 5 49 5 47.01951599 5.12025452 C46.15125687 5.11803391 45.28299774 5.11581329 44.38842773 5.11352539 C43.40748642 5.11344986 42.4265451 5.11337433 41.4158783 5.11329651 C40.3492244 5.10813522 39.2825705 5.10297394 38.18359375 5.09765625 C36.55430687 5.09553383 36.55430687 5.09553383 34.8921051 5.09336853 C31.40720925 5.08775048 27.92237658 5.07519492 24.4375 5.0625 C22.08138113 5.05748733 19.72526126 5.05292402 17.36914062 5.04882812 C11.57940536 5.03777519 5.78970719 5.02101951 0 5 C0 3.35 0 1.7 0 0 Z " fill="#7AD092" transform="translate(75,83)"/>
<path d="M0 0 C0.85049423 0.00222061 1.70098846 0.00444122 2.57725525 0.00672913 C4.01863609 0.00684242 4.01863609 0.00684242 5.48913574 0.00695801 C7.05630592 0.01469994 7.05630592 0.01469994 8.65513611 0.02259827 C9.71913132 0.02401321 10.78312653 0.02542816 11.87936401 0.02688599 C15.29293069 0.03250388 18.70643286 0.04505941 22.11997986 0.05775452 C24.42792162 0.06276721 26.73586441 0.06733052 29.04380798 0.07142639 C34.71505412 0.08247912 40.38626238 0.09923465 46.05747986 0.12025452 C45.72747986 1.77025452 45.39747986 3.42025452 45.05747986 5.12025452 C29.54747986 5.12025452 14.03747986 5.12025452 -1.94252014 5.12025452 C-2.27252014 3.80025452 -2.60252014 2.48025452 -2.94252014 1.12025452 C-1.94252014 0.12025452 -1.94252014 0.12025452 0 0 Z " fill="#DF76A5" transform="translate(107.94252014160156,42.87974548339844)"/>
</svg>
